<svg xmlns="http://www.w3.org/2000/svg" xml:space="preserve" style="width:256px;height:256px;opacity:1" viewBox="0 0 512 512"><path d="M495.272 423.558s-68.542-59.952-84.937-76.328c-24.063-23.938-33.69-35.466-25.195-54.931 37.155-75.78 24.303-169.854-38.72-232.858-79.235-79.254-207.739-79.254-286.984 0-79.245 79.264-79.245 207.729 0 287.003 62.985 62.985 157.088 75.837 232.839 38.691 19.466-8.485 31.022 1.142 54.951 25.215 16.384 16.385 76.308 84.937 76.308 84.937 31.089 31.071 55.009 11.95 69.368-2.39 14.33-14.35 33.46-38.259 2.37-69.339zM286.017 286.012c-45.9 45.871-120.288 45.871-166.169 0-45.88-45.871-45.88-120.278 0-166.149 45.881-45.871 120.269-45.871 166.169 0 45.881 45.871 45.881 120.278 0 166.149z" style="fill:#464646"/></svg>